<svg width="20" height="20" viewBox="0 0 20 20" fill="none" xmlns="http://www.w3.org/2000/svg">
<rect width="20" height="20" rx="6" fill="#FD9222"/>
<path d="M8.94874 14.7542C9.38459 14.7542 9.71409 14.5868 9.93724 14.2521L14.7646 6.97699C14.8448 6.85844 14.9041 6.74164 14.9425 6.62657C14.9808 6.50802 15 6.3947 15 6.28661C15 5.98675 14.8954 5.73919 14.6862 5.54394C14.4805 5.34519 14.2259 5.24582 13.9226 5.24582C13.7134 5.24582 13.5356 5.28766 13.3891 5.37134C13.2462 5.45154 13.1102 5.59101 12.9812 5.78975L8.92782 12.1548L6.89854 9.72281C6.67887 9.46827 6.40342 9.34101 6.07218 9.34101C5.76185 9.34101 5.50558 9.44038 5.30335 9.63912C5.10112 9.83787 5 10.0872 5 10.387C5 10.523 5.02092 10.652 5.06276 10.7741C5.10809 10.8926 5.19003 11.0164 5.30858 11.1454L8.00209 14.3201C8.24965 14.6095 8.5652 14.7542 8.94874 14.7542Z" fill="white"/>
</svg>
